<svg viewBox="8 8 32 32" width="24" height="24" xmlns="http://www.w3.org/2000/svg">

    <circle cx="24" cy="24" r="15" fill="none" stroke="rgb(46, 46, 46)" stroke-width="2"></circle>
    <circle cx="24" cy="24" r="14" fill="none" stroke="rgb(59, 59, 59)" stroke-width="2"></circle>
    <circle cx="24" cy="24" r="13" fill="none" stroke="rgb(58, 58, 58)" stroke-width="2"></circle>
    <circle cx="24" cy="24" r="12" fill="none" stroke="rgb(45, 45, 45)" stroke-width="2"></circle>
    <circle cx="24" cy="24" r="11" fill="none" stroke="rgb(49, 49, 49)" stroke-width="2"></circle>
    <circle cx="24" cy="24" r="10" fill="none" stroke="rgb(52, 52, 52)" stroke-width="2"></circle>
    <circle cx="24" cy="24" r="9" fill="none" stroke="rgb(58, 58, 58)" stroke-width="2"></circle>
    <circle cx="24" cy="24" r="8" fill="none" stroke="rgb(59, 59, 59)" stroke-width="2"></circle>
    <circle cx="24" cy="24" r="7" fill="none" stroke="rgb(38, 38, 38)" stroke-width="2"></circle>
    <circle cx="24" cy="24" r="6" fill="none" stroke="rgb(39, 39, 39)" stroke-width="2"></circle>
    <circle cx="24" cy="24" r="5" fill="none" stroke="rgb(44, 44, 44)" stroke-width="2"></circle>
    <circle cx="24" cy="24" r="4" fill="none" stroke="rgb(36, 36, 36)" stroke-width="2"></circle>
    <circle cx="24" cy="24" r="3" fill="none" stroke="rgb(53, 53, 53)" stroke-width="2"></circle>
    <circle cx="24" cy="24" r="2" fill="none" stroke="rgb(48, 48, 48)" stroke-width="2"></circle>
    <circle cx="24" cy="24" r="1" fill="none" stroke="rgb(44, 44, 44)" stroke-width="2"></circle>
    <circle cx="24" cy="24" r="0" fill="none" stroke="rgb(43, 43, 43)" stroke-width="2"></circle>
    <circle cx="24" cy="24" r="12" fill="white"></circle>
    <polygon
        points="16.8 16.8 19.2 16.8 24 21.6 28.799999999999997 16.8 31.200000000000003 16.8 31.200000000000003 31.200000000000003 28.799999999999997 31.200000000000003 28.799999999999997 20.19411254969543 24 24.99411254969543 19.2 20.19411254969543 19.2 31.200000000000003 16.8 31.200000000000003"
        fill="black"></polygon>
</svg>